<svg version="1" xmlns="http://www.w3.org/2000/svg" width="506.667" height="506.667" viewBox="0 0 380.000000 380.000000"><path d="M177.8 51.4c-.1.2-4.7.6-10 1-48.5 3.2-91.7 32.2-113.7 76.3-12.4 24.9-16.9 51.4-13.4 78.7.7 5.5 1.5 10.8 1.9 11.8.3 1 .8 3 1 4.5 2.1 11.7 12.3 33.7 21.5 46.7C71.3 279 83.3 292 89.9 297c1.7 1.4 4.4 3.5 5.9 4.7 1.5 1.3 3 2.3 3.4 2.3.4 0 1.3.7 2.1 1.5 5.3 5.2 35.6 18.1 47.1 19.9 2.1.3 4.1.8 4.5 1 2.7 1.7 30.6 2.5 41.6 1.3 17.1-2 35.4-8 50.9-16.7l9-5 8.5 3.4c35.5 14.3 74.6 6.6 102.8-20.1 1.8-1.7 3.3-3.3 3.3-3.6 0-.2-2.8-.7-6.2-1.1-8.9-.9-11.4-1.4-19.3-3.7-52.6-15.6-80.9-71.3-62.9-123.7 2.7-7.6 10.6-22.6 13.4-25.2.3-.3 1.7-2 3.2-3.8l2.7-3.3-2.1-3.7c-8.9-16-24.2-32.6-41.4-44.9-18-13-44.8-22.4-67.9-23.9-4.4-.3-8.5-.7-9.2-.9-.6-.2-1.3-.2-1.5-.1z"/></svg>